<svg id="Слой_1" data-name="Слой 1" xmlns="http://www.w3.org/2000/svg" viewBox="0 0 50.2 8.6"><path d="M5.81,8.46v-7H3.35L3.14,5.1C3,7.18,2.39,8.53.64,8.53A2.69,2.69,0,0,1,0,8.46V6.84a1.77,1.77,0,0,0,.39,0c.86,0,1.06-.82,1.12-1.92l.25-5H7.58V8.46Z"/><path d="M9.26,5.22a3,3,0,0,1,3.19-3.37,3,3,0,0,1,3.18,3.37c0,2.12-1.2,3.38-3.18,3.38S9.26,7.34,9.26,5.22Zm4.62,0c0-1.24-.53-2-1.43-2S11,4,11,5.22s.51,2,1.43,2S13.88,6.47,13.88,5.22Z"/><path d="M18.84,3.33V8.46H17.13V2H21.6V3.33Z"/><path d="M22.52,5.22a3,3,0,0,1,3.19-3.37,3,3,0,0,1,3.18,3.37c0,2.12-1.2,3.38-3.18,3.38S22.52,7.34,22.52,5.22Zm4.61,0c0-1.24-.52-2-1.42-2s-1.43.73-1.43,2,.51,2,1.43,2S27.13,6.47,27.13,5.22Z"/><path d="M35.11,3.33H33.18V8.46H31.47V3.33H29.54V2h5.57Z"/><path d="M36.43,8.46V2h1.68V6h.1l2.58-4h1.68V8.46H40.79v-4h-.1l-2.58,4Z"/><path d="M48.5,3.33H46V8.46H44.3V2h5.9V8.46H48.5Z"/></svg>